/* XPM */
static char *result[] = {
/* columns rows colors chars-per-pixel */
"64 64 47 1 ",
"  c #ED1B23",
". c #EC1C23",
"X c #EC1B24",
"o c #ED1B24",
"O c #EC1C24",
"+ c #ED1C24",
"@ c #975D3B",
"# c #9B5A3B",
"$ c #9A5B3B",
"% c #9C593A",
"& c #9D593A",
"* c #9C593B",
"= c #9D593B",
"- c #9C5A3B",
"; c #A65238",
": c #2DA84A",
"> c #31A649",
", c #22B04B",
"< c #23B04B",
"1 c #22B04C",
"2 c #A6E61B",
"3 c #A7E61B",
"4 c #A7E71B",
"5 c #A5E61C",
"6 c #A7E61C",
"7 c #A7E71C",
"8 c #97E021",
"9 c #98E121",
"0 c #F9AFB2",
"q c #CDF7A8",
"w c #CEF7A8",
"e c #D2F9B8",
"r c #D2F8BB",
"t c #D2F9BB",
"y c #FDE2E3",
"u c #FEEDEF",
"i c #FFF1F3",
"p c #FFF3F5",
"a c #FEF5F5",
"s c #FFFBFB",
"d c #FFFBFC",
"f c #FFFDFD",
"g c #FFFDFE",
"h c #FFFEFE",
"j c #FFFEFF",
"k c white",
"l c None",
/* pixels */
"lllllllllllllllllllllllllllllllllll<,,,,llllllllllllllllllllllll",
"lllllllllllllllllllllllll&&&lllllll,,,9,,lllllllllllllllllllllll",
"llllllllllllllllllllllll&*==&&&lllll,,q29,llllllllllllllllllllll",
"llllllllllllllllllllllll&=**==%&&lll19r63<llllllllllllllllllllll",
"llllllllllllllllllllllllllll**%=&&ll84t76<,lllllllllllllllllllll",
"llllllllllllllllllllllllllllll*%-&ltqer76<<lllllllllllllllllllll",
"lllllllllllllllllllllllllllllll*%=&terq64<,lllllllllllllllllllll",
"lllllllllllllllllllllllllllllll&&*-lqw66,,llllllllllllllllllllll",
"lllllllllllllllllllllllllllllllll**,6464<lllllllllllllllllllllll",
"lllllllllllllllllllllllllllllllll*@:946,<lllllllllllllllllllllll",
"lllllllllllllllllllllllllllllllll*$>,95<,lllllllllllllllllllllll",
"lllllllllllllllllllllllllllllllll*#>,,,,l      lllllllllllllllll",
"lllllllllllllllllllllllO O    lll*&-lll          lllllllllllllll",
"llllllllllllllllll  O  O O      &*&&l    ++++++   llllllllllllll",
"llllllllllllllllO   O  +++++++X.&&*llo ++++++++++  lllllllllllll",
"llllllllllllllO O ++++++++++++O.  *l o++++++++++++  llllllllllll",
"lllllllllllll O +++++++++++++++  o;   +++++++++++++  lllllllllll",
"llllllllllll  +++++++++++++++++++   ++++++++++++++++olllllllllll",
"lllllllllll  +++++++++++++++++++++++++++++++++++++++  llllllllll",
"llllllllll  +++++++++sy++++++++++++++++++++++++++++++  lllllllll",
"llllllllllo++++++++ykkyyyky0++++++++++++++++++++++++++olllllllll",
"llllllllllX+++++++ykkppskka0yyy+++++++++++++++++++++++ Ollllllll",
"lllllllll O+++++++kkkpkkkkassss++++++++++++++++++++++++Xllllllll",
"lllllllllX+++++++ykkhkkkkkhksas++++++++++++++++++++++++ollllllll",
"llllllll O++++++yfkhkkkkkhkkkaa++++++++++++++++++++++++ollllllll",
"llllllllX++++++skpkkkkkkkakkksa++++++++++++++++++++++++Xllllllll",
"llllllllX++++++kgdkkkkkkkskkksy++++++++++++++++++++++++Xllllllll",
"llllllllo++++++yhdkpkkkskkkksa+++++++++++++++++++++++++ollllllll",
"llllllllo++++++skkkpkkkkkkkhya+++++++++++++++++++++++++Xllllllll",
"llllllllX+++++kkkkpukgkkgkks0y+++++++++++++++++++++++++Xllllllll",
"llllllllX+++++kkkhkgkkkgkkkya+++++++++++++++++++++++++O llllllll",
"llllllllX++++skkkikgjkkkkkkyy+++++++++++++++++++++++++Xlllllllll",
"llllllllOO+++ksskkkskkkkkyyy+++++++++++++++++++++++++O lllllllll",
"lllllllllX+++kskhkhkkkskh++++++++++++++++++++++++++++Xllllllllll",
"lllllllllX+++hkkskhkkassy+++++++++++++++++++++++++++O llllllllll",
"lllllllllO ++0skskkksasy++++++++++++++++++++++++++++Xlllllllllll",
"llllllllllX+++yyyksayyy+++++++++++++++++++++++++++++Xlllllllllll",
"llllllllllOO+++++sy0y++++++++++++++++++++++++++++++OOlllllllllll",
"lllllllllllX+++++++++++++++++++++++++++++++++++++++Xllllllllllll",
"lllllllllllX+++++++++++++++++++++++++++++++++++++++Xllllllllllll",
"lllllllllllX+++++++++++++++++++++++++++++++++++++++Xllllllllllll",
"lllllllllll  +++++++++++++++++++++++++++++++++++++O llllllllllll",
"llllllllllllX+++++++++++++++++++++++++++++++++++++Xlllllllllllll",
"llllllllllllX+++++++++++++++++++++++++++++++++++++Xlllllllllllll",
"llllllllllll  +++++++++++++++++++++++++++++++++++OOlllllllllllll",
"lllllllllllllX+++++++++++++++++++++++++++++++++++Xllllllllllllll",
"lllllllllllllX++++++++++++++++++++++++++++++++++O llllllllllllll",
"lllllllllllll  +++++++++++++++++++++++++++++++++Xlllllllllllllll",
"llllllllllllllo+++++++++++++++++++++++++++++++OO lllllllllllllll",
"llllllllllllllX++++++++++++++++++++++++++++++ OOllllllllllllllll",
"llllllllllllllO ++++++++++++++++++++++++++O O llllllllllllllllll",
"lllllllllllllll  O+++++++++++++++++++++O OO Olllllllllllllllllll",
"llllllllllllllll OO  O OO O OOO OO OO OO Ollllllllllllllllllllll",
"llllllllllllllllllO  O OO O OOO OO OO Olllllllllllllllllllllllll",
"llllllllllllllllllllllllllllllllllllllllllllllllllllllllllllllll",
"llllllllllllllllllllllllllllllllllllllllllllllllllllllllllllllll",
"llllllllllllllllllllllllllllllllllllllllllllllllllllllllllllllll",
"llllllllllllllllllllllllllllllllllllllllllllllllllllllllllllllll",
"llllllllllllllllllllllllllllllllllllllllllllllllllllllllllllllll",
"llllllllllllllllllllllllllllllllllllllllllllllllllllllllllllllll",
"llllllllllllllllllllllllllllllllllllllllllllllllllllllllllllllll",
"llllllllllllllllllllllllllllllllllllllllllllllllllllllllllllllll",
"llllllllllllllllllllllllllllllllllllllllllllllllllllllllllllllll",
"llllllllllllllllllllllllllllllllllllllllllllllllllllllllllllllll"
};
