/* XPM */
static char *result[] = {
/* columns rows colors chars-per-pixel */
"64 64 57 1 ",
"  c black",
". c #010101",
"X c #090909",
"o c gray4",
"O c gray27",
"+ c #464646",
"@ c #484848",
"# c gray32",
"$ c #535353",
"% c gray33",
"& c gray42",
"* c #9B593A",
"= c #9B5A3A",
"- c #9C593A",
"; c #9D593A",
": c #9C593B",
"> c #9D593B",
", c #9C5A3B",
"< c #00769A",
"1 c #188EB2",
"2 c #188FB3",
"3 c #198FB3",
"4 c #1D93B7",
"5 c #3299B4",
"6 c #00A0D0",
"7 c #09A9D9",
"8 c #0AAADA",
"9 c #0AABDB",
"0 c #00AEE3",
"q c #00B3EA",
"w c #00B4EA",
"e c #01B4EB",
"r c #01B5EB",
"t c #00B7ED",
"y c #00B6EE",
"u c #00B7EE",
"i c #00B7EF",
"p c #16B7E7",
"a c #AB9388",
"s c #AB9489",
"d c #AC948A",
"f c #AB958C",
"g c #AE9C94",
"h c #B0A8A4",
"j c #B1A8A4",
"k c #B1A9A5",
"l c #B1AAA6",
"z c #B2ABA9",
"x c #B1AFAD",
"c c #B2AFAD",
"v c #B2AFAE",
"b c #B2B0B0",
"n c #B2B1B1",
"m c #B3B2B2",
"M c gray70",
"N c #B4B4B4",
"B c None",
/* pixels */
"BBBBBBBBBBBBBBBBBBBBBBBBBBBBBBBBBBBBBBBBBBBBBBBBBBBBBBBBBBBBBBBB",
"BBBBBBBBBBBBBBBBBBBBBBBBBBBBBBBBBBBBBBBBBBBBBBBBBBBBBBBBBBBBBBBB",
"BBBBBBBBBBBBBBBBBBBBBBBBBBBBBBBBBBBBBBBBBBBBBBBBBBBBBBBBBBBBBBBB",
"BBBBBBBBBBBBBBBBBBBBBBBBBBBBBBBBBBBBBBBBBBBBBBBBBBBBBBBBBBBBBBBB",
"BBBBBBBBBBBBBBBBBBBBBBBBBBBBBBBBBBBBBBBBBBBBBBBBBBBBBBBBBBBBBBBB",
"BBBBBBBBBBBBBBBBBBBBBBBBBBBBBBBBBBBBBBBBBBBBBBBBBBBBBBBBBBBBBBBB",
"BBBBBBBBBBBBBBBBBBBBBBBBBBBBBBBBBB;;;;;;;BBBBBBBBBBBBBBBBBBBBBBB",
"BBBBBBBBBBBBBBBBBBBBBBBBBBBBBBBBBB;;;;;;;BBBBBBBBBBBBBBBBBBBBBBB",
"BBBBBBBBBBBBBBBBBBBBBBBB;;,;;;;;;;;;;;;;;;;;;;BBBBBBBBBBBBBBBBBB",
"BBBBBBBBBBBBBBBBBBBB;;;;;;>;;;;;;,,;;;B,,----:;;;BBBBBBBBBBBBBBB",
"BBBBBBBBBBBBBBBBBBBB;;;;;;>;;;;;;,,;;;B,,----:;;;BBBBBBBBBBBBBBB",
"BBBBBBBBBBBBBBBBB;;;;;;;;;;;BBB;;,,,,:-,,;;;;-;;:;;;BBBBBBBBBBBB",
"BBBBBBBBBBBBBBBBB;;;;;;;;;;;BBB;;,,,,:-,,;;;;-;;:;;;BBBBBBBBBBBB",
"BBBBBBBBBBBBBBBBB::;NNNg--;:BB,,,lNzzkj::BBBB;;;;;;;;BBBBBBBBBBB",
"BBBBBBBBBBBBBBBB;;;NMMls::,,;;,,,NNllzvkkkfflkjj;BBB:;;BBBBBBBBB",
"BBBBBBBBBBBBBBBB;;;NMMls::,,;;,,,NNllzvkkkfflkjj;BBB:;;BBBBBBBBB",
"BBBBBBBBBBBBBBB;;BBMzz:,;;;----,,;-;;,fMMjffljjj;,;;;::BBBBBBBBB",
"BBBBBBBBBBBBBBB;;BBMzz:,;;;----,,;-;;,fMMjffljjj;,;;;::BBBBBBBBB",
"BBBBBBBBBBBBB;;:B,,j,,>B;;-*--,,,--BB,Bff-BB:-;;B,;;;;;;BBBBBBBB",
"BBBBBBBBBBBBB::,----;;B>--jk--;;;-,;;:,--:,,-:;;:;BB;;;:BBBBBBBB",
"BBBBBBBBBBBBB::,----;;B>--jk--;;;-,;;:,--:,,-:;;:;BB;;;:BBBBBBBB",
"BBBBBBBBBBBBB;;-----;;->==nnjjsdd:-::----,,,::::::::,;;:;BBBBBBB",
"BBBBBBBBBBBBB;;-----;;->==nnjjsdd:-::----,,,::::::::,;;:;BBBBBBB",
"BBBBBBBBBBBB;**----,>>,>--zhkksff;:,,,-;;g;;,,,,B;::-BB;:BBBBBBB",
"BBBBBBBBBBBB;---:,,,lllB::,:,,-,,--,,;-BBM::;,,,BB;;-;;B:BBBBBBB",
"BBBBBBBBBBBB;---:,,,lllB::,:,,-,,--,,;-BBM::;,,,BB;;-;;B:BBBBBBB",
"BBBBBBBBBBB;>---:zzNnnNB--;;;;;;;;;;;;,;;B;;-,BB,;;;,::B:BBBBBBB",
"BBBBBBBBBBB;>---:zzNnnNB--;;;;;;;;;;;;,;;B;;-,BB,;;;,::B:BBBBBBB",
"BBBBBBBBBBB,-,,:;MMzllB,--;:;;NNNNNNNN,--,;;-:,,,::::aaB:BBBBBBB",
"BBBBBBBBB;;,=::;Bff,BB;-;;:;MMMMMMMMMMNll,----::-----cc;:BBBBBBB",
"BBBBBBBBB;;,=::;Bff,BB;-;;:;MMMMMMMMMMNll,----::-----cc;:BBBBBBB",
"BBBBBBBB;;;-jss>-;;;,,-;;;;MMMMNN#@###MMMN::,f,,--,,:bb;-;;BBBBB",
"BBBBBBBB;;;-jss>-;;;,,-;;;;MMMMNN#@###MMMN::,f,,--,,:bb;-;;BBBBB",
"BBBBBBBB:;;ahss-*,,:,,:;ll$%&&+++OOOO+NMMM::-MBB-;;;BxxB:::BBBBB",
"BBBBBB;;:--c:;;-----::;m$$@#+++++OOOOO+BBM;;,B,,::::;nn;;::BBBBB",
"BBBBBB;;:--c:;;-----::;m$$@#+++++OOOOO+BBM;;,B,,::::;nn;;::BBBBB",
"BBBBBB::-ssh-BB-----;;kM@@X    ..XX++OO++MBB:,--B:::sjj;B::BBBBB",
"BBBBBB::-ssh-BB-----;;kM@@X    ..XX++OO++MBB:,--B:::sjj;B::BBBBB",
"BBBBBB;;laa-aBB--::-kkmN++         ..OO++MBB;,---:--x--;;;;BBBBB",
"BBBBB;--M---c;;--;;-$$72OO  ..       1OBBMNN:B---:--z::--;;BBBBB",
"BBBBB;--M---c;;--;;-$$72OO  ..       1OBBMNN:B---:--z::--;;BBBBB",
"BBBBB;zzl---x---,::j@@errr  << <<  66 3NNMMM:B::::--;::--::BBBBB",
"BBBBB;zzl---x---,::j@@errr  << <<  66 3NNMMM:B::::--;::--::BBBBB",
"BBBBBjkk---:b--::--n##e yyX 00600 6rr94MMMMM:;;;:;--;--::;;BBBBB",
"BBBB-j---;;:M---;--MMM77uu6i  q  it88%MNNMNN;:BB;;ggN--;;>>BBBBB",
"BBBB-j---;;:M---;--MMM77uu6i  q  it88%MNNMNN;:BB;;ggN--;;>>BBBBB",
"BBBB;;---::lm---:::mMM@@qqq iiwii t@@%%MMMBBB:;;,:MMN::;;;;BBBBB",
"BBBB;;---::lm---:::mMM@@qqq iiwii t@@%%MMMBBB:;;,:MMN::;;;;BBBBB",
"BBBB::--;--Nk;;:-BBkMM%%qq6   0  .qOO@@MMMBB;-;;>:::,,,;;BBBBBBB",
"BBBB:-,,;--;;BB;;;;jMMMMppo.  <..X0++##NNN;;:-;;;;::,,,;:BBBBBBB",
"BBBB:-,,;--;;BB;;;;jMMMMppo.  <..X0++##NNN;;:-;;;;::,,,;:BBBBBBB",
"BBBB;:::;::;B;;;;;;>;;;;;;;;;;;;;;5;;;;;;;::;;;;:;;;;;;>;BBBBBBB",
"BBBB;:::;::;B;;;;;;>;;;;;;;;;;;;;;5;;;;;;;::;;;;:;;;;;;>;BBBBBBB",
"BBBB;;--;--;;::;;BB;;;;;;;;;;;;;;;;;;;;;;;;;BBBB;;;;;;;>BBBBBBBB",
"BBBB;;;;;;;;;;;BBBBBBBBBBBBBBBBBBBBBBBBBBBBBBBBBBBBBBBBBBBBBBBBB",
"BBBB;;;;;;;;;;;BBBBBBBBBBBBBBBBBBBBBBBBBBBBBBBBBBBBBBBBBBBBBBBBB",
"BBBBBBBBBBBBBBBBBBBBBBBBBBBBBBBBBBBBBBBBBBBBBBBBBBBBBBBBBBBBBBBB",
"BBBBBBBBBBBBBBBBBBBBBBBBBBBBBBBBBBBBBBBBBBBBBBBBBBBBBBBBBBBBBBBB",
"BBBBBBBBBBBBBBBBBBBBBBBBBBBBBBBBBBBBBBBBBBBBBBBBBBBBBBBBBBBBBBBB",
"BBBBBBBBBBBBBBBBBBBBBBBBBBBBBBBBBBBBBBBBBBBBBBBBBBBBBBBBBBBBBBBB",
"BBBBBBBBBBBBBBBBBBBBBBBBBBBBBBBBBBBBBBBBBBBBBBBBBBBBBBBBBBBBBBBB",
"BBBBBBBBBBBBBBBBBBBBBBBBBBBBBBBBBBBBBBBBBBBBBBBBBBBBBBBBBBBBBBBB",
"BBBBBBBBBBBBBBBBBBBBBBBBBBBBBBBBBBBBBBBBBBBBBBBBBBBBBBBBBBBBBBBB",
"BBBBBBBBBBBBBBBBBBBBBBBBBBBBBBBBBBBBBBBBBBBBBBBBBBBBBBBBBBBBBBBB"
};
