/* XPM */
static char *result[] = {
/* columns rows colors chars-per-pixel */
"64 64 17 1 ",
"  c #000D11",
". c #001117",
"X c #00141A",
"o c #00171E",
"O c #003140",
"+ c #003949",
"@ c #004154",
"# c #006989",
"$ c #00799D",
"% c #008BB5",
"& c #009FD0",
"* c #00B6ED",
"= c #00B6EE",
"- c #00B7EE",
"; c #00B7EF",
": c #00BAEF",
"> c None",
/* pixels */
">>>>>>>>>>>>>>>>>>>>>>>>>>>>>>>>>>>>>>>>>>>>>>>>>>>>>>>>>>>>>>>>",
">>>>>>>>>>>>>>>>>>>>>>>>>>>>>>>>>>>>>>>>>>>>>>>>>>>>>>>>>>>>>>>>",
">>>>>>>>>>>>>>>>>>>>>>>----*>>>>>>>>>>>>>>>>>>>>>>>>>>>>>>>>>>>>",
">>>>>>>>>>>>>>>>>>*-----;;;;------*>>>>>>>>>>>>>>>>>>>>>>>>>>>>>",
">>>>>>>>>>>>>>>>*=--;;;;;;;;;;;;;;;**>>>>>>>>>>>>>>>>>>>>>>>>>>>",
">>>>>>>>>>>>>>--;;;;;;;;;;;;;;;;;;;;*>>>>>>>>>>>>>>>>>>>>>>>>>>>",
">>>>>>>>>>>>>--;;;;;;;;;;;;;;;;;;;;;;->>>>>>>>>>>>>>>>>>>>>>>>>>",
">>>>>>>>>>>>>-;;%%;;;;;;;;;;%%;;;;;;;>->>>>>>>>>>>>>>>>>>>>>>>>>",
">>>>>>>>>>>>-;;;#$%;;;;;;;;;#$&;;;;;;>->>>>>>>>>>>>>>>>>>>>>>>>>",
">>>>>>>>>>>>-;;;%. ;;;;;;;;;%..;;;;;;>->>>>>>>>>>>>>>>>>>>>>>>>>",
">>>>>>>>>>>:-;;;;XOo;;;;;;;;;X+@;;;;;>->>>>>>>>>>>>>>>>>>>>>>>>>",
">>>>>>>>>>:>-;;;;;@o;;;;;;;;;;@@;;;;;>->>>>>>>>>>>>>>>>>>>>>>>>>",
">>>>>>>>>>>==;;;;;;;;;;;;;;;;;;;;;;;;>->>>>>>>>>>>>>>>>>>>>>>>>>",
">>>>>>>>>>>-;;;;;;;;;;;;;;;;;;;;;;;;;>->>>>>>>>>>>>>>>>>>>>>>>>>",
">>>>>>>>>>>-;;;;;;;;;;;;;;;;;;;;;;;;;>->>>>>>>>>>>>>>>>>>>>>>>>>",
">>>>>>>>>>>-;;;;;;;;;;;;;;;;;;;;;;;;>>->>>>>>>>>>>>>>>>>>>>>>>>>",
">>>>>>>>>>>-;;;;;;;;;;;;;;;;;;;;;;;;>>->>>>>>>>>>>>>>>>>>>>>>>>>",
">>>>>>>>>>>;;;;;;;;;;;;;;;;;;;;;;;;>>-->>>>>>>>>>>>>>>>>>>>>>>>>",
">>>>>>>>>>>;-;;;;;;;;;;;;;;;;;;;;;;>>->>>>>>>>>>>>>>>>>>>>>>>>>>",
">>>>>>>>>>>>;>;;;;;;;;;;;;;;;;;;;;;>-->>>>>>>>>>>>>>>>>>>>>>>>>>",
">>>>>>>>>>>>-;>>>>;;;;;;;;;;;;;;;;>>->>>>>>>>>>>>>>>>>>>>>>>>>>>",
">>>>>>>>>>>>>-->>>>>>>;;;;;;;;;;;;>>->>>>>>>>>>>>>>>>>>>>>>>>>>>",
">>>>>>>>>>>>>>----->>>>;;;;;;;;;;;>->>>>>>>>>>>>>>>>>>>>>>>>>>>>",
">>>>>>>>>>>>>>>>>>>---;>;;;;;;;;;;>->>>>>>>>>>>>>>>>>>>>>>>>>>>>",
">>>>>>>>>>>>>>>>>>>>>>-;;;;;;;;;;;>*>>>>>>>>>>>>>>>>>>>>>>>>>>>>",
">>>>>>>>>>>>>>>>>>>>>>>;-;;;;;;;;;>->>>>>>>>>>>>>>>>>>>>>>>>>>>>",
">>>>>>>>>>>>>>>>>>>>>>>>-;;;;;;;;;;-->>>>>>>>>>>>>>>>>>>>>>>>>>>",
">>>>>>>>>>>>>>>>>>>>>>>>;;;;;;;;;;>>->>>>>>>>>>>>>>>>>>>>>>>>>>>",
">>>>>>>>>>>>>>>>>>>>>>>>>-;;;;;;;;>>->>>>>>>>>>>>>>>>>>>>>>>>>>>",
">>>>>>>>>>>>>>>>>>>>>>>>>-;;;;;;;;>->>>>>>>>>>>>>>>>>>>>>>>>>>>>",
">>>>>>>>>>>>>>>>>>>>>>>>>-;;;;;;;;>->>>>>>>>>>>>>>>>>>>>>>>>>>>>",
">>>>>>>>>>>>>>>>>>>>>>>>>-;;;;;;;;>->>>>>>>>>>>>>>>>>>>>>>>>>>>>",
">>>>>>>>>>>>>>>>>>>>>>>>;-;;;;;;;>>->>>>>>>>>>>>>>>>>>>>>>>>>>>>",
">>>>>>>>>>>>>>>>>>>>>>>>>-;;;;;;;>>->>>>>>>>>>>>>>>>>>>>>>>>>>>>",
">>>>>>>>>>>>>>>>>>>>>>>>>-;;;;;;>>->>>>>>>>>>>>>>>>>>>>>>>>>>>>>",
">>>>>>>>>>>>>>>>>>>>>>>>>-;;;;;;>>->>>>>>>>>>>>>>>>>>>>>>>>>>>>>",
">>>>>>>>>>>>>>>>>>>>>>>>--;;;;;>>-->>>>>>>>>>>>>>>>>>>>>>>>>>>>>",
">>>>>>>>>>>>>>>>>>>>>>>>;;;;;;;>>->>>>>>>>>>>>>>>>>>>>>>>>>>>>>>",
">>>>>>>>>>>>>>>>>>>>>>>>;-;;;;;>-->>>>>>>>>>>>>>>>>>>>>>>>>>>>>>",
">>>>>>>>>>>>>>>>>>>>>>>>>-;;;;>>->>>>>>>>>>>>>>>>>>>>>>>>>>>>>>>",
">>>>>>>>>>>>>>>>>>>>>>>>--;;;;>>->>>>>>>>>>>>>>>>>>>>>>>>>>>>>>>",
">>>>>>>>>>>>>>>>>>>>>>>>-;;;;>>-->>>>>>>>>>>>>>>>>>>>>>>>>>>>>>>",
">>>>>>>>>>>>>>>>>>>>>>>--;;;;>>->>>>>>>>>>>>>>>>>>>>>>>>>>>>>>>>",
">>>>>>>>>>>>>>>>>>>>>>>-;;;;;>-->>>>>>>>>>>>>>>>>>>>>>>>>>>>>>>>",
">>>>>>>>>>>>>>>>>>>>>>>=;;;;;>->>>>>>>>>>>>>>>>>>>>>>>>>>>>>>>>>",
">>>>>>>>>>>>>>>>>>>>>>=;;;;;;>->>>>>>>>>>>>>>>>>>>>>>>>>>>>>>>>>",
">>>>>>>>>>>>>>>>>>>>>>-;;;;;;>*>>>>>>>>>>>>>>>>>>>>>>>>>>>>>>>>>",
">>>>>>>>>>>>>>>>>>>>>>-;;;;;;;->>>>>>>>>>>>>>>>>>>>>>>>>>>>>>>>>",
">>>>>>>>>>>>>>>>>>>>>>-;;;;;;;>->>>>>>>>>>>>>>>>>>>>>>>>>>>>>>>>",
">>>>>>>>>>>>>>>>>>>>>-;;;;;;;;>->>>>>>>>>>>>>>>>>>>>>>>>>>>>>>>>",
">>>>>>>>>>>>>>>>>>>>>-;;;;;;;;>*>>>>>>>>>>>>>>>>>>>>>>>>>>>>>>>>",
">>>>>>>>>>>>>>>>>>>>>-;;;;;;;;;->>>>>>>>>>>>>>>>>>>>>>>>>>>>>>>>",
">>>>>>>>>>>>>>>>>>>>>-;;;;;;;;;>*>>>>>>>>>>>>>>>>>>>>>>>>>>>>>>>",
">>>>>>>>>>>>>>>>>>>>>-;;;;;;;;;>->>>>>>>>>>>>>>>>>>>>>>>>>>>>>>>",
">>>>>>>>>>>>>>>>>>>>>-;;;;;;;;;;*->>>>>>>>>>>>>>>>>>>>>>>>>>>>>>",
">>>>>>>>>>>>>>>>>>>>>-;;;;;;;;;;;*->>>>>>>>>>>>>>>>>>>>>>>>>>>>>",
">>>>>>>>>>>>>>>>>>>>-;;;;;;;;;;;;;**>>>>>>>>>>>>>>>>>>>>>>>>>>>>",
">>>>>>>>>>>>>>>>>>>>-;;;;;;;;;;;;;;-*>>>>>>>>>>>>>>>>>>>>>>>>>>>",
">>>>>>>>>>>>>>>>>>>>;>>>;;;;;;;;;;;;;*->>>>>>>>>>>>>>>>>>>>>>>>>",
">>>>>>>>>>>>>>>>>>>>>->>>>>>>>>>>>>>>>-->>>>>>>>>>>>>>>>>>>>>>>>",
">>>>>>>>>>>>>>>>>>>>>---->>>>>>>>>>>>>>->>>>>>>>>>>>>>>>>>>>>>>>",
">>>>>>>>>>>>>>>>>>>>>>>>>------------=-->>>>>>>>>>>>>>>>>>>>>>>>",
">>>>>>>>>>>>>>>>>>>>>>>>>>>>>>>>>>>>>>>>>>>>>>>>>>>>>>>>>>>>>>>>",
">>>>>>>>>>>>>>>>>>>>>>>>>>>>>>>>>>>>>>>>>>>>>>>>>>>>>>>>>>>>>>>>"
};
