/* XPM */
static char *result[] = {
/* columns rows colors chars-per-pixel */
"64 64 2 1 ",
"  c #A8E61D",
". c #D3F9BC",
/* pixels */
"                ................                ................",
"                ................                ................",
"                ................                ................",
"                ................                ................",
"                ................                ................",
"                ................                ................",
"                ................                ................",
"                ................                ................",
"                ................                ................",
"                ................                ................",
"                ................                ................",
"                ................                ................",
"                ................                ................",
"                ................                ................",
"                ................                ................",
"                ................                ................",
"................                ................                ",
"................                ................                ",
"................                ................                ",
"................                ................                ",
"................                ................                ",
"................                ................                ",
"................                ................                ",
"................                ................                ",
"................                ................                ",
"................                ................                ",
"................                ................                ",
"................                ................                ",
"................                ................                ",
"................                ................                ",
"................                ................                ",
"................                ................                ",
"                ................                ................",
"                ................                ................",
"                ................                ................",
"                ................                ................",
"                ................                ................",
"                ................                ................",
"                ................                ................",
"                ................                ................",
"                ................                ................",
"                ................                ................",
"                ................                ................",
"                ................                ................",
"                ................                ................",
"                ................                ................",
"                ................                ................",
"                ................                ................",
"................                ................                ",
"................                ................                ",
"................                ................                ",
"................                ................                ",
"................                ................                ",
"................                ................                ",
"................                ................                ",
"................                ................                ",
"................                ................                ",
"................                ................                ",
"................                ................                ",
"................                ................                ",
"................                ................                ",
"................                ................                ",
"................                ................                ",
"................                ................                "
};
